<svg xmlns="http://www.w3.org/2000/svg" viewBox="0 0 100 100" preserveAspectRatio="xMidYMid" width="201" height="201" style="shape-rendering: auto; display: block; background: rgb(255, 255, 255);" xmlns:xlink="http://www.w3.org/1999/xlink"><g><g transform="rotate(0 50 50)">
  <rect x="49.5" y="34" rx="0" ry="0" width="1" height="2" fill="#0099cc">
    <animate attributeName="opacity" values="1;0" keyTimes="0;1" dur="3.571428571428571s" begin="-3.4663865546218484s" repeatCount="indefinite"></animate>
  </rect>
</g><g transform="rotate(10.588235294117647 50 50)">
  <rect x="49.5" y="34" rx="0" ry="0" width="1" height="2" fill="#0099cc">
    <animate attributeName="opacity" values="1;0" keyTimes="0;1" dur="3.571428571428571s" begin="-3.3613445378151257s" repeatCount="indefinite"></animate>
  </rect>
</g><g transform="rotate(21.176470588235293 50 50)">
  <rect x="49.5" y="34" rx="0" ry="0" width="1" height="2" fill="#0099cc">
    <animate attributeName="opacity" values="1;0" keyTimes="0;1" dur="3.571428571428571s" begin="-3.256302521008403s" repeatCount="indefinite"></animate>
  </rect>
</g><g transform="rotate(31.764705882352942 50 50)">
  <rect x="49.5" y="34" rx="0" ry="0" width="1" height="2" fill="#0099cc">
    <animate attributeName="opacity" values="1;0" keyTimes="0;1" dur="3.571428571428571s" begin="-3.15126050420168s" repeatCount="indefinite"></animate>
  </rect>
</g><g transform="rotate(42.35294117647059 50 50)">
  <rect x="49.5" y="34" rx="0" ry="0" width="1" height="2" fill="#0099cc">
    <animate attributeName="opacity" values="1;0" keyTimes="0;1" dur="3.571428571428571s" begin="-3.0462184873949574s" repeatCount="indefinite"></animate>
  </rect>
</g><g transform="rotate(52.94117647058823 50 50)">
  <rect x="49.5" y="34" rx="0" ry="0" width="1" height="2" fill="#0099cc">
    <animate attributeName="opacity" values="1;0" keyTimes="0;1" dur="3.571428571428571s" begin="-2.941176470588235s" repeatCount="indefinite"></animate>
  </rect>
</g><g transform="rotate(63.529411764705884 50 50)">
  <rect x="49.5" y="34" rx="0" ry="0" width="1" height="2" fill="#0099cc">
    <animate attributeName="opacity" values="1;0" keyTimes="0;1" dur="3.571428571428571s" begin="-2.8361344537815123s" repeatCount="indefinite"></animate>
  </rect>
</g><g transform="rotate(74.11764705882354 50 50)">
  <rect x="49.5" y="34" rx="0" ry="0" width="1" height="2" fill="#0099cc">
    <animate attributeName="opacity" values="1;0" keyTimes="0;1" dur="3.571428571428571s" begin="-2.7310924369747895s" repeatCount="indefinite"></animate>
  </rect>
</g><g transform="rotate(84.70588235294117 50 50)">
  <rect x="49.5" y="34" rx="0" ry="0" width="1" height="2" fill="#0099cc">
    <animate attributeName="opacity" values="1;0" keyTimes="0;1" dur="3.571428571428571s" begin="-2.626050420168067s" repeatCount="indefinite"></animate>
  </rect>
</g><g transform="rotate(95.29411764705883 50 50)">
  <rect x="49.5" y="34" rx="0" ry="0" width="1" height="2" fill="#0099cc">
    <animate attributeName="opacity" values="1;0" keyTimes="0;1" dur="3.571428571428571s" begin="-2.521008403361344s" repeatCount="indefinite"></animate>
  </rect>
</g><g transform="rotate(105.88235294117646 50 50)">
  <rect x="49.5" y="34" rx="0" ry="0" width="1" height="2" fill="#0099cc">
    <animate attributeName="opacity" values="1;0" keyTimes="0;1" dur="3.571428571428571s" begin="-2.4159663865546217s" repeatCount="indefinite"></animate>
  </rect>
</g><g transform="rotate(116.47058823529412 50 50)">
  <rect x="49.5" y="34" rx="0" ry="0" width="1" height="2" fill="#0099cc">
    <animate attributeName="opacity" values="1;0" keyTimes="0;1" dur="3.571428571428571s" begin="-2.310924369747899s" repeatCount="indefinite"></animate>
  </rect>
</g><g transform="rotate(127.05882352941177 50 50)">
  <rect x="49.5" y="34" rx="0" ry="0" width="1" height="2" fill="#0099cc">
    <animate attributeName="opacity" values="1;0" keyTimes="0;1" dur="3.571428571428571s" begin="-2.205882352941176s" repeatCount="indefinite"></animate>
  </rect>
</g><g transform="rotate(137.64705882352942 50 50)">
  <rect x="49.5" y="34" rx="0" ry="0" width="1" height="2" fill="#0099cc">
    <animate attributeName="opacity" values="1;0" keyTimes="0;1" dur="3.571428571428571s" begin="-2.1008403361344534s" repeatCount="indefinite"></animate>
  </rect>
</g><g transform="rotate(148.23529411764707 50 50)">
  <rect x="49.5" y="34" rx="0" ry="0" width="1" height="2" fill="#0099cc">
    <animate attributeName="opacity" values="1;0" keyTimes="0;1" dur="3.571428571428571s" begin="-1.9957983193277309s" repeatCount="indefinite"></animate>
  </rect>
</g><g transform="rotate(158.8235294117647 50 50)">
  <rect x="49.5" y="34" rx="0" ry="0" width="1" height="2" fill="#0099cc">
    <animate attributeName="opacity" values="1;0" keyTimes="0;1" dur="3.571428571428571s" begin="-1.8907563025210081s" repeatCount="indefinite"></animate>
  </rect>
</g><g transform="rotate(169.41176470588235 50 50)">
  <rect x="49.5" y="34" rx="0" ry="0" width="1" height="2" fill="#0099cc">
    <animate attributeName="opacity" values="1;0" keyTimes="0;1" dur="3.571428571428571s" begin="-1.7857142857142854s" repeatCount="indefinite"></animate>
  </rect>
</g><g transform="rotate(180 50 50)">
  <rect x="49.5" y="34" rx="0" ry="0" width="1" height="2" fill="#0099cc">
    <animate attributeName="opacity" values="1;0" keyTimes="0;1" dur="3.571428571428571s" begin="-1.6806722689075628s" repeatCount="indefinite"></animate>
  </rect>
</g><g transform="rotate(190.58823529411765 50 50)">
  <rect x="49.5" y="34" rx="0" ry="0" width="1" height="2" fill="#0099cc">
    <animate attributeName="opacity" values="1;0" keyTimes="0;1" dur="3.571428571428571s" begin="-1.57563025210084s" repeatCount="indefinite"></animate>
  </rect>
</g><g transform="rotate(201.1764705882353 50 50)">
  <rect x="49.5" y="34" rx="0" ry="0" width="1" height="2" fill="#0099cc">
    <animate attributeName="opacity" values="1;0" keyTimes="0;1" dur="3.571428571428571s" begin="-1.4705882352941175s" repeatCount="indefinite"></animate>
  </rect>
</g><g transform="rotate(211.76470588235293 50 50)">
  <rect x="49.5" y="34" rx="0" ry="0" width="1" height="2" fill="#0099cc">
    <animate attributeName="opacity" values="1;0" keyTimes="0;1" dur="3.571428571428571s" begin="-1.3655462184873948s" repeatCount="indefinite"></animate>
  </rect>
</g><g transform="rotate(222.35294117647058 50 50)">
  <rect x="49.5" y="34" rx="0" ry="0" width="1" height="2" fill="#0099cc">
    <animate attributeName="opacity" values="1;0" keyTimes="0;1" dur="3.571428571428571s" begin="-1.260504201680672s" repeatCount="indefinite"></animate>
  </rect>
</g><g transform="rotate(232.94117647058823 50 50)">
  <rect x="49.5" y="34" rx="0" ry="0" width="1" height="2" fill="#0099cc">
    <animate attributeName="opacity" values="1;0" keyTimes="0;1" dur="3.571428571428571s" begin="-1.1554621848739495s" repeatCount="indefinite"></animate>
  </rect>
</g><g transform="rotate(243.52941176470588 50 50)">
  <rect x="49.5" y="34" rx="0" ry="0" width="1" height="2" fill="#0099cc">
    <animate attributeName="opacity" values="1;0" keyTimes="0;1" dur="3.571428571428571s" begin="-1.0504201680672267s" repeatCount="indefinite"></animate>
  </rect>
</g><g transform="rotate(254.11764705882354 50 50)">
  <rect x="49.5" y="34" rx="0" ry="0" width="1" height="2" fill="#0099cc">
    <animate attributeName="opacity" values="1;0" keyTimes="0;1" dur="3.571428571428571s" begin="-0.9453781512605041s" repeatCount="indefinite"></animate>
  </rect>
</g><g transform="rotate(264.70588235294116 50 50)">
  <rect x="49.5" y="34" rx="0" ry="0" width="1" height="2" fill="#0099cc">
    <animate attributeName="opacity" values="1;0" keyTimes="0;1" dur="3.571428571428571s" begin="-0.8403361344537814s" repeatCount="indefinite"></animate>
  </rect>
</g><g transform="rotate(275.29411764705884 50 50)">
  <rect x="49.5" y="34" rx="0" ry="0" width="1" height="2" fill="#0099cc">
    <animate attributeName="opacity" values="1;0" keyTimes="0;1" dur="3.571428571428571s" begin="-0.7352941176470588s" repeatCount="indefinite"></animate>
  </rect>
</g><g transform="rotate(285.88235294117646 50 50)">
  <rect x="49.5" y="34" rx="0" ry="0" width="1" height="2" fill="#0099cc">
    <animate attributeName="opacity" values="1;0" keyTimes="0;1" dur="3.571428571428571s" begin="-0.630252100840336s" repeatCount="indefinite"></animate>
  </rect>
</g><g transform="rotate(296.47058823529414 50 50)">
  <rect x="49.5" y="34" rx="0" ry="0" width="1" height="2" fill="#0099cc">
    <animate attributeName="opacity" values="1;0" keyTimes="0;1" dur="3.571428571428571s" begin="-0.5252100840336134s" repeatCount="indefinite"></animate>
  </rect>
</g><g transform="rotate(307.05882352941177 50 50)">
  <rect x="49.5" y="34" rx="0" ry="0" width="1" height="2" fill="#0099cc">
    <animate attributeName="opacity" values="1;0" keyTimes="0;1" dur="3.571428571428571s" begin="-0.4201680672268907s" repeatCount="indefinite"></animate>
  </rect>
</g><g transform="rotate(317.6470588235294 50 50)">
  <rect x="49.5" y="34" rx="0" ry="0" width="1" height="2" fill="#0099cc">
    <animate attributeName="opacity" values="1;0" keyTimes="0;1" dur="3.571428571428571s" begin="-0.315126050420168s" repeatCount="indefinite"></animate>
  </rect>
</g><g transform="rotate(328.2352941176471 50 50)">
  <rect x="49.5" y="34" rx="0" ry="0" width="1" height="2" fill="#0099cc">
    <animate attributeName="opacity" values="1;0" keyTimes="0;1" dur="3.571428571428571s" begin="-0.21008403361344535s" repeatCount="indefinite"></animate>
  </rect>
</g><g transform="rotate(338.8235294117647 50 50)">
  <rect x="49.5" y="34" rx="0" ry="0" width="1" height="2" fill="#0099cc">
    <animate attributeName="opacity" values="1;0" keyTimes="0;1" dur="3.571428571428571s" begin="-0.10504201680672268s" repeatCount="indefinite"></animate>
  </rect>
</g><g transform="rotate(349.4117647058824 50 50)">
  <rect x="49.5" y="34" rx="0" ry="0" width="1" height="2" fill="#0099cc">
    <animate attributeName="opacity" values="1;0" keyTimes="0;1" dur="3.571428571428571s" begin="0s" repeatCount="indefinite"></animate>
  </rect>
</g><g></g></g><!-- [ldio] generated by https://loading.io --></svg>